<svg height="512pt" viewBox="0 -13 512 512" width="512pt" xmlns="http://www.w3.org/2000/svg"><path d="m360.1875 45.90625h-73.28125c-4.140625 0-7.5-3.355469-7.5-7.5 0-4.140625 3.359375-7.5 7.5-7.5h73.28125c4.140625 0 7.5 3.359375 7.5 7.5 0 4.144531-3.359375 7.5-7.5 7.5zm0 0" fill="#a3defe"/><path d="m351.769531 155.066406c-1.917969 0-3.835937-.730468-5.300781-2.195312-2.929688-2.929688-2.929688-7.679688 0-10.605469l31.355469-31.355469c3.722656-3.722656 5.773437-8.671875 5.773437-13.9375v-27.632812c0-4.144532 3.355469-7.5 7.5-7.5 4.140625 0 7.5 3.355468 7.5 7.5v27.632812c0 9.273438-3.613281 17.988282-10.167968 24.542969l-31.355469 31.355469c-1.464844 1.464844-3.382813 2.195312-5.304688 2.195312zm0 0" fill="#efd176"/><path d="m391.097656 76.816406c-21.179687 0-38.410156-17.230468-38.410156-38.410156 0-21.175781 17.230469-38.40625 38.410156-38.40625 21.175782 0 38.40625 17.230469 38.40625 38.40625 0 21.179688-17.230468 38.410156-38.40625 38.410156zm0-61.816406c-12.910156 0-23.410156 10.5-23.410156 23.40625 0 12.910156 10.5 23.410156 23.410156 23.410156 12.90625 0 23.40625-10.5 23.40625-23.410156 0-12.90625-10.5-23.40625-23.40625-23.40625zm0 0" fill="#eea849"/><path d="m225.09375 455.769531h-73.28125c-4.140625 0-7.5-3.359375-7.5-7.5 0-4.144531 3.359375-7.5 7.5-7.5h73.28125c4.140625 0 7.5 3.355469 7.5 7.5 0 4.140625-3.359375 7.5-7.5 7.5zm0 0" fill="#a3defe"/><path d="m256 486.675781c-21.179688 0-38.40625-17.230469-38.40625-38.40625 0-21.179687 17.226562-38.410156 38.40625-38.410156s38.40625 17.230469 38.40625 38.410156c0 21.175781-17.226562 38.40625-38.40625 38.40625zm0-61.816406c-12.90625 0-23.40625 10.5-23.40625 23.410156 0 12.90625 10.5 23.40625 23.40625 23.40625s23.40625-10.5 23.40625-23.40625c0-12.910156-10.5-23.410156-23.40625-23.410156zm0 0" fill="#6e7ca8"/><path d="m120.902344 424.839844c-4.140625 0-7.5-3.359375-7.5-7.5v-27.636719c0-9.269531 3.613281-17.984375 10.167968-24.542969l31.355469-31.355468c2.929688-2.925782 7.679688-2.925782 10.605469 0 2.929688 2.929687 2.929688 7.679687 0 10.605468l-31.355469 31.359375c-3.722656 3.722657-5.773437 8.671875-5.773437 13.933594v27.636719c0 4.140625-3.355469 7.5-7.5 7.5zm0 0" fill="#efd176"/><path d="m120.902344 486.675781c-21.175782 0-38.40625-17.230469-38.40625-38.40625 0-21.179687 17.230468-38.410156 38.40625-38.410156 21.179687 0 38.410156 17.230469 38.410156 38.410156 0 21.175781-17.230469 38.40625-38.410156 38.40625zm0-61.816406c-12.90625 0-23.40625 10.5-23.40625 23.410156 0 12.90625 10.5 23.40625 23.40625 23.40625 12.910156 0 23.410156-10.5 23.410156-23.40625 0-12.910156-10.5-23.410156-23.410156-23.410156zm0 0" fill="#eea849"/><path d="m442.683594 250.839844h-51.242188c-4.144531 0-7.5-3.359375-7.5-7.5 0-4.144532 3.355469-7.5 7.5-7.5h51.242188c4.140625 0 7.5 3.355468 7.5 7.5 0 4.140625-3.359375 7.5-7.5 7.5zm0 0" fill="#a3defe"/><path d="m473.59375 281.746094c-21.179688 0-38.410156-17.230469-38.410156-38.40625 0-21.179688 17.230468-38.410156 38.410156-38.410156 21.175781 0 38.40625 17.230468 38.40625 38.410156 0 21.175781-17.230469 38.40625-38.40625 38.40625zm0-61.816406c-12.910156 0-23.410156 10.5-23.410156 23.410156 0 12.90625 10.5 23.40625 23.410156 23.40625 12.90625 0 23.40625-10.5 23.40625-23.40625 0-12.910156-10.5-23.410156-23.40625-23.410156zm0 0" fill="#6e7ca8"/><path d="m120.558594 250.839844h-51.242188c-4.140625 0-7.5-3.359375-7.5-7.5 0-4.144532 3.359375-7.5 7.5-7.5h51.242188c4.144531 0 7.5 3.355468 7.5 7.5 0 4.140625-3.355469 7.5-7.5 7.5zm0 0" fill="#a3defe"/><path d="m38.40625 281.746094c-21.175781 0-38.40625-17.230469-38.40625-38.40625 0-21.179688 17.230469-38.410156 38.40625-38.410156 21.179688 0 38.410156 17.230468 38.410156 38.410156 0 21.175781-17.230468 38.40625-38.410156 38.40625zm0-61.816406c-12.90625 0-23.40625 10.5-23.40625 23.410156 0 12.90625 10.5 23.40625 23.40625 23.40625 12.910156 0 23.410156-10.5 23.410156-23.40625 0-12.910156-10.5-23.410156-23.410156-23.410156zm0 0" fill="#6e7ca8"/><path d="m388.003906 382.84375c-1.917968 0-3.839844-.734375-5.300781-2.199219l-36.234375-36.234375c-2.929688-2.925781-2.929688-7.675781 0-10.605468 2.929688-2.925782 7.675781-2.925782 10.605469 0l36.234375 36.234374c2.929687 2.929688 2.929687 7.679688 0 10.605469-1.464844 1.464844-3.382813 2.199219-5.304688 2.199219zm0 0" fill="#a3defe"/><path d="m409.859375 435.605469c-10.257813 0-19.902344-3.996094-27.160156-11.25-14.972657-14.972657-14.972657-39.339844 0-54.316407 14.976562-14.976562 39.34375-14.976562 54.320312 0 7.253907 7.253907 11.25 16.902344 11.25 27.160157 0 10.257812-3.996093 19.90625-11.25 27.160156-7.253906 7.25-16.898437 11.246094-27.160156 11.246094zm-16.550781-54.960938c-9.125 9.128907-9.125 23.980469 0 33.105469 4.421875 4.421875 10.300781 6.855469 16.550781 6.855469 6.253906 0 12.132813-2.433594 16.550781-6.855469 4.421875-4.421875 6.859375-10.300781 6.859375-16.550781 0-6.253907-2.4375-12.132813-6.859375-16.554688-9.125-9.125-23.976562-9.125-33.101562 0zm0 0" fill="#6e7ca8"/><path d="m160.230469 155.066406c-1.917969 0-3.839844-.730468-5.304688-2.195312l-36.234375-36.234375c-2.925781-2.929688-2.925781-7.675781 0-10.605469 2.929688-2.929688 7.679688-2.929688 10.609375 0l36.230469 36.234375c2.929688 2.929687 2.929688 7.675781 0 10.605469-1.464844 1.464844-3.382812 2.195312-5.300781 2.195312zm0 0" fill="#a3defe"/><path d="m102.140625 127.867188c-9.835937 0-19.671875-3.742188-27.160156-11.230469-7.253907-7.253907-11.25-16.902344-11.25-27.160157 0-10.257812 3.996093-19.90625 11.25-27.160156 7.253906-7.253906 16.898437-11.25 27.160156-11.25 10.257813 0 19.902344 3.996094 27.160156 11.25 14.972657 14.976563 14.972657 39.34375 0 54.320313-7.488281 7.484375-17.328125 11.230469-27.160156 11.230469zm0-61.796876c-6.253906 0-12.132813 2.433594-16.550781 6.855469-4.421875 4.421875-6.859375 10.300781-6.859375 16.550781 0 6.253907 2.4375 12.132813 6.859375 16.550782 9.125 9.128906 23.976562 9.128906 33.101562 0 9.125-9.125 9.125-23.976563 0-33.101563-4.421875-4.421875-10.300781-6.855469-16.550781-6.855469zm21.855469 45.261719h.007812zm0 0" fill="#6e7ca8"/><path d="m256 386.277344c-78.816406 0-142.941406-64.121094-142.941406-142.9375 0-78.820313 64.125-142.941406 142.941406-142.941406s142.941406 64.121093 142.941406 142.941406c0 78.816406-64.125 142.9375-142.941406 142.9375zm0-270.878906c-70.546875 0-127.941406 57.390624-127.941406 127.941406 0 70.546875 57.394531 127.9375 127.941406 127.9375s127.941406-57.394532 127.941406-127.9375c0-70.546875-57.394531-127.941406-127.941406-127.941406zm0 0" fill="#efd176"/><path d="m256 76.816406c-21.179688 0-38.40625-17.230468-38.40625-38.410156 0-21.175781 17.226562-38.40625 38.40625-38.40625s38.40625 17.230469 38.40625 38.40625c0 21.179688-17.226562 38.410156-38.40625 38.410156zm0-61.816406c-12.90625 0-23.40625 10.5-23.40625 23.40625 0 12.910156 10.5 23.410156 23.40625 23.410156s23.40625-10.5 23.40625-23.410156c0-12.90625-10.5-23.40625-23.40625-23.40625zm0 0" fill="#6e7ca8"/><path d="m363.046875 243.339844c0 59.117187-47.925781 107.046875-107.046875 107.046875s-107.046875-47.929688-107.046875-107.046875c0-59.121094 47.925781-107.050782 107.046875-107.050782s107.046875 47.929688 107.046875 107.050782zm0 0" fill="#eea849"/><path d="m309.738281 335.933594c-90.773437-18.472656-133.480469-105.460938-118.0625-178.164063-25.945312 19.535157-42.722656 50.589844-42.722656 85.570313 0 59.117187 47.925781 107.046875 107.046875 107.046875 19.589844 0 37.945312-5.269531 53.738281-14.453125zm0 0" fill="#e9901b"/><g fill="#f7ef87"><path d="m273.707031 250.839844h-59.976562c-4.140625 0-7.5-3.359375-7.5-7.5 0-4.144532 3.359375-7.5 7.5-7.5h59.976562c10.972657 0 19.898438-8.929688 19.898438-19.902344s-8.925781-19.902344-19.898438-19.902344h-59.976562c-4.140625 0-7.5-3.355468-7.5-7.5 0-4.140625 3.359375-7.5 7.5-7.5h59.976562c19.242188 0 34.898438 15.65625 34.898438 34.902344 0 19.242188-15.65625 34.902344-34.898438 34.902344zm0 0"/><path d="m273.707031 305.640625h-59.976562c-4.140625 0-7.5-3.359375-7.5-7.5s3.359375-7.5 7.5-7.5h59.976562c10.972657 0 19.898438-8.925781 19.898438-19.902344 0-10.972656-8.925781-19.898437-19.898438-19.898437-4.144531 0-7.5-3.359375-7.5-7.5 0-4.144532 3.355469-7.5 7.5-7.5 19.242188 0 34.898438 15.65625 34.898438 34.898437 0 19.246094-15.65625 34.902344-34.898438 34.902344zm0 0"/><path d="m234.660156 323.46875c-4.144531 0-7.5-3.355469-7.5-7.5v-145.261719c0-4.144531 3.355469-7.5 7.5-7.5 4.140625 0 7.5 3.355469 7.5 7.5v145.261719c0 4.144531-3.359375 7.5-7.5 7.5zm0 0"/><path d="m266.773438 196.035156c-4.140626 0-7.5-3.359375-7.5-7.5v-17.097656c0-4.140625 3.359374-7.5 7.5-7.5 4.140624 0 7.5 3.359375 7.5 7.5v17.097656c0 4.140625-3.359376 7.5-7.5 7.5zm0 0"/><path d="m266.773438 322.734375c-4.140626 0-7.5-3.355469-7.5-7.5v-17.09375c0-4.144531 3.359374-7.5 7.5-7.5 4.140624 0 7.5 3.355469 7.5 7.5v17.09375c0 4.144531-3.359376 7.5-7.5 7.5zm0 0"/></g></svg>