<svg height="512pt" viewBox="-99 0 511 512" width="512pt" xmlns="http://www.w3.org/2000/svg"><path d="m42.808594 296.554688c24.96875 24.972656 65.148437 27.824218 84.976562 27.546874 6.859375-.09375 12.375-5.613281 12.472656-12.472656.273438-19.824218-2.578124-60.003906-27.546874-84.972656-24.972657-24.96875-65.148438-27.820312-84.976563-27.546875-6.859375.09375-12.378906 5.613281-12.472656 12.472656-.273438 19.824219 2.578125 60.003907 27.546875 84.972657zm0 0" fill="#89d47f"/><path d="m127.785156 324.101562c6.859375-.09375 12.375-5.613281 12.472656-12.472656.1875-13.746094-1.128906-37.273437-10.277343-58.738281-17.015625 45.0625-47.179688 56.199219-76.019531 52.792969 24.550781 16.558594 56.738281 18.65625 73.824218 18.417968zm0 0" fill="#5ec783"/><path d="m102.96875 294.316406c-1.917969 0-3.839844-.730468-5.300781-2.199218l-50.421875-50.417969c-2.929688-2.929688-2.929688-7.679688 0-10.605469 2.929687-2.929688 7.679687-2.929688 10.605468 0l50.421876 50.417969c2.929687 2.929687 2.929687 7.679687 0 10.605469-1.464844 1.464843-3.386719 2.199218-5.304688 2.199218zm0 0" fill="#5ec783"/><path d="m271.714844 296.554688c-24.96875 24.972656-65.148438 27.824218-84.972656 27.546874-6.859376-.09375-12.378907-5.613281-12.472657-12.472656-.277343-19.824218 2.574219-60.003906 27.546875-84.972656 24.96875-24.96875 65.148438-27.820312 84.972656-27.546875 6.859376.09375 12.378907 5.613281 12.472657 12.472656.273437 19.824219-2.578125 60.003907-27.546875 84.972657zm0 0" fill="#89d47f"/><path d="m186.742188 324.101562c-6.859376-.09375-12.378907-5.613281-12.472657-12.472656-.191406-13.746094 1.128907-37.273437 10.273438-58.738281 17.015625 45.0625 47.183593 56.199219 76.023437 52.792969-24.554687 16.558594-56.742187 18.65625-73.824218 18.417968zm0 0" fill="#5ec783"/><path d="m211.554688 294.316406c-1.917969 0-3.839844-.730468-5.304688-2.199218-2.925781-2.925782-2.925781-7.675782 0-10.605469l50.421875-50.417969c2.929687-2.929688 7.675781-2.929688 10.605469 0 2.929687 2.929688 2.929687 7.675781 0 10.605469l-50.417969 50.417969c-1.464844 1.464843-3.386719 2.199218-5.304687 2.199218zm0 0" fill="#5ec783"/><path d="m128.652344 203.164062h57.21875v144.417969h-57.21875zm0 0" fill="#89d47f"/><path d="m273.019531 123.257812c0 63.933594-51.824219 115.761719-115.757812 115.761719-63.929688 0-115.757813-51.828125-115.757813-115.761719 0-63.929687 51.828125-115.757812 115.757813-115.757812 63.933593 0 115.757812 51.828125 115.757812 115.757812zm0 0" fill="#eea849"/><path d="m215.375 223.390625c-98.160156-19.976563-144.34375-114.042969-127.671875-192.664063-28.058594 21.125-46.199219 54.710938-46.199219 92.53125 0 63.933594 51.828125 115.761719 115.757813 115.761719 21.183593 0 41.035156-5.695312 58.113281-15.628906zm0 0" fill="#e9901b"/><g fill="#f7ef87"><path d="m173.902344 123.964844h-55.625c-4.144532 0-7.5-3.359375-7.5-7.5 0-4.144532 3.355468-7.5 7.5-7.5h55.625c9.878906 0 17.914062-8.039063 17.914062-17.914063 0-9.878906-8.035156-17.914062-17.914062-17.914062h-55.625c-4.144532 0-7.5-3.359375-7.5-7.5 0-4.144531 3.355468-7.5 7.5-7.5h55.625c18.148437 0 32.914062 14.765625 32.914062 32.914062 0 18.148438-14.765625 32.914063-32.914062 32.914063zm0 0"/><path d="m173.902344 174.792969h-55.625c-4.144532 0-7.5-3.355469-7.5-7.5 0-4.140625 3.355468-7.5 7.5-7.5h55.625c9.878906 0 17.914062-8.035157 17.914062-17.914063s-8.035156-17.914062-17.914062-17.914062c-4.140625 0-7.5-3.359375-7.5-7.5 0-4.144532 3.359375-7.5 7.5-7.5 18.148437 0 32.914062 14.765625 32.914062 32.914062 0 18.148438-14.765625 32.914063-32.914062 32.914063zm0 0"/><path d="m137.6875 191.328125c-4.144531 0-7.5-3.355469-7.5-7.5v-134.730469c0-4.140625 3.355469-7.5 7.5-7.5 4.140625 0 7.5 3.359375 7.5 7.5v134.730469c0 4.144531-3.359375 7.5-7.5 7.5zm0 0"/><path d="m167.472656 73.132812c-4.140625 0-7.5-3.355468-7.5-7.5v-15.855468c0-4.140625 3.359375-7.5 7.5-7.5 4.144532 0 7.5 3.359375 7.5 7.5v15.855468c0 4.144532-3.355468 7.5-7.5 7.5zm0 0"/><path d="m167.472656 190.648438c-4.140625 0-7.5-3.355469-7.5-7.5v-15.855469c0-4.140625 3.359375-7.5 7.5-7.5 4.144532 0 7.5 3.359375 7.5 7.5v15.855469c0 4.144531-3.355468 7.5-7.5 7.5zm0 0"/><path d="m157.261719 254.160156c10.84375 0 38.328125 0 57.183593-24.0625 3.300782-4.214844.832032-10.433594-4.441406-11.339844-10.820312-1.863281-22.007812-1.410156-33.148437 2.226563-3.128907-6.132813-9.464844-11.273437-14.089844-14.433594-3.324219-2.273437-7.683594-2.273437-11.007813 0-4.625 3.160157-10.960937 8.296875-14.089843 14.433594-11.136719-3.636719-22.328125-4.089844-33.144531-2.226563-5.273438.90625-7.746094 7.125-4.441407 11.339844 18.851563 24.0625 46.335938 24.0625 57.179688 24.0625zm0 0"/></g><path d="m291.722656 388.269531h-268.921875c-9.898437 0-17-9.539062-14.164062-19.019531 3.847656-12.859375 15.679687-21.667969 29.097656-21.667969h239.050781c13.421875 0 25.253906 8.808594 29.097656 21.667969 2.839844 9.480469-4.261718 19.019531-14.160156 19.019531zm0 0" fill="#6e7ca8"/><path d="m281 388.269531h-247.476562l23.558593 90.890625c3.867188 14.917969 17.332031 25.339844 32.746094 25.339844h134.871094c15.414062 0 28.878906-10.417969 32.746093-25.339844zm0 0" fill="#e1b89a"/><path d="m134.785156 388.269531h-101.261718l23.558593 90.890625c3.867188 14.917969 17.332031 25.339844 32.746094 25.339844h72.25c-20.664063-26.683594-29.972656-80.679688-27.292969-116.230469zm0 0" fill="#d2996f"/><path d="m191.191406 438.40625c-1.921875 0-3.839844-.734375-5.304687-2.199219-2.929688-2.929687-2.929688-7.675781 0-10.605469l10.523437-10.523437c2.929688-2.925781 7.675782-2.925781 10.605469 0 2.925781 2.929687 2.929687 7.679687 0 10.609375l-10.523437 10.519531c-1.464844 1.464844-3.382813 2.199219-5.300782 2.199219zm0 0" fill="#d2996f"/><path d="m193.039062 480.128906c-1.921874 0-3.839843-.734375-5.304687-2.199218-2.929687-2.929688-2.929687-7.675782 0-10.605469l22.335937-22.339844c2.929688-2.929687 7.679688-2.929687 10.609376 0 2.925781 2.929687 2.925781 7.679687 0 10.605469l-22.339844 22.339844c-1.464844 1.464843-3.382813 2.199218-5.300782 2.199218zm0 0" fill="#d2996f"/><path d="m313.070312 367.101562c-4.757812-15.910156-19.679687-27.019531-36.28125-27.019531h-83.417968v-8.511719c23.21875-.507812 59.53125-5.59375 83.648437-29.710937 26.597657-26.601563 30.050781-68.042969 29.742188-90.382813-.152344-10.988281-8.878907-19.714843-19.871094-19.867187-7.582031-.101563-17.523437.242187-28.398437 1.828125 14.074218-20.339844 22.027343-44.773438 22.027343-70.179688 0-20.679687-5.222656-41.140624-15.101562-59.164062-1.992188-3.632812-6.546875-4.964844-10.183594-2.972656-3.632813 1.988281-4.960937 6.546875-2.972656 10.179687 8.675781 15.824219 13.257812 33.792969 13.257812 51.957031 0 36.324219-18.484375 70.386719-48.613281 90.339844-1.667969-1.105468-3.570312-1.875-5.632812-2.230468-10.652344-1.835938-21.105469-1.53125-31.152344.898437-3.917969-5.039063-9.042969-9.121094-13.121094-11.90625-5.917969-4.042969-13.558594-4.042969-19.476562 0-4.078126 2.785156-9.203126 6.867187-13.121094 11.90625-10.046875-2.433594-20.5-2.734375-31.152344-.898437-2.0625.355468-3.964844 1.125-5.632812 2.230468-30.128907-19.953125-48.613282-54.015625-48.613282-90.339844 0-59.691406 48.5625-108.257812 108.257813-108.257812 28.195312 0 54.890625 10.777344 75.171875 30.351562 2.976562 2.875 7.726562 2.792969 10.601562-.1875 2.878906-2.980468 2.792969-7.730468-.1875-10.605468-23.089844-22.285156-53.484375-34.558594-85.585937-34.558594-67.964844 0-123.257813 55.292969-123.257813 123.257812 0 25.410157 7.953125 49.839844 22.03125 70.179688-10.878906-1.585938-20.820312-1.929688-28.402344-1.828125-10.992187.152344-19.71875 8.878906-19.871093 19.871094-.308594 22.335937 3.144531 63.78125 29.742187 90.378906 24.121094 24.117187 60.433594 29.203125 83.648438 29.714844v8.507812h-83.417969c-16.601563 0-31.523437 11.109375-36.28125 27.019531-2.039063 6.8125-.773437 13.992188 3.476563 19.695313 4.246093 5.699219 10.757812 8.972656 17.871093 8.972656h4.917969l16.648438 64.230469c.875 3.378906 3.917968 5.617188 7.253906 5.617188.625 0 1.257812-.078126 1.886718-.238282 4.011719-1.039062 6.417969-5.132812 5.378907-9.144531l-15.671875-60.464844h228.09375l-21.125 81.507813c-3.007813 11.613281-13.488282 19.722656-25.484375 19.722656h-134.871094c-8.347656 0-16.28125-4.019531-21.226563-10.746094-2.453124-3.339844-7.144531-4.058594-10.484374-1.605468-3.339844 2.453124-4.054688 7.148437-1.601563 10.488281 7.757813 10.558593 20.210937 16.863281 33.3125 16.863281h134.871094c18.828125 0 35.28125-12.730469 40.003906-30.960938l22.101563-85.269531h4.917968c7.113282 0 13.625-3.273437 17.875-8.976562 4.246094-5.703125 5.511719-12.878907 3.472656-19.691407zm-92.722656-132.378906c1.726563-2.203125 2.742188-4.773437 3.015625-7.429687 6.941407-4.421875 13.355469-9.492188 19.1875-15.109375 16.5625-4.855469 33.074219-5.726563 44.132813-5.574219 2.8125.039063 5.039062 2.269531 5.078125 5.078125.644531 46.527344-15.605469 69.820312-25.351563 79.566406-9.277344 9.277344-30.828125 24.476563-73.039062 25.324219v-61.175781c9.304687-3.921875 18.839844-10.292969 26.976562-20.679688zm-85.007812-6.609375c3.507812 1.144531 7.332031-.433593 9.007812-3.722656 1.867188-3.65625 6-7.792969 11.640625-11.648437.773438-.527344 1.773438-.527344 2.550781 0 5.640626 3.855468 9.773438 7.992187 11.636719 11.648437 1.679688 3.289063 5.503907 4.867187 9.007813 3.722656 9.191406-3 18.914062-3.699219 28.90625-2.074219-7.265625 9.03125-15.941406 14.105469-24.265625 16.960938-.167969.046875-.332031.101562-.492188.160156-10.5 3.492188-20.378906 3.5-26.070312 3.5-5.6875 0-15.566407-.007812-26.066407-3.5-.164062-.058594-.324218-.113281-.492187-.164062-8.324219-2.851563-17-7.925782-24.265625-16.957032 9.992188-1.621093 19.710938-.925781 28.902344 2.074219zm43.03125 31.8125v80.15625h-42.21875v-80.15625c8.867187 1.730469 16.515625 1.734375 21.109375 1.734375 4.597656 0 12.242187-.003906 21.109375-1.734375zm-130.257813 31.328125c-9.746093-9.746094-25.996093-33.039062-25.351562-79.566406.039062-2.808594 2.269531-5.039062 5.078125-5.078125 11.070312-.160156 27.574218.714844 44.132812 5.574219 5.832032 5.613281 12.246094 10.683594 19.1875 15.105468.277344 2.660157 1.292969 5.230469 3.015625 7.429688 8.140625 10.390625 17.675781 16.761719 26.976563 20.679688v61.171874c-42.183594-.871093-63.761719-16.042968-73.039063-25.316406zm249.449219 86.582032c-1.386719 1.863281-3.515625 2.933593-5.839844 2.933593h-268.921875c-2.324219 0-4.453125-1.070312-5.839843-2.933593-1.386719-1.863282-1.800782-4.210938-1.136719-6.4375 2.875-9.605469 11.882812-16.316407 21.914062-16.316407h239.050781c10.023438 0 19.035157 6.710938 21.910157 16.316407.667969 2.226562.253906 4.574218-1.136719 6.4375zm0 0"/></svg>